<?xml version="1.0" encoding="utf-8"?>
<!-- Generator: Adobe Illustrator 18.0.0, SVG Export Plug-In . SVG Version: 6.00 Build 0)  -->
<!DOCTYPE svg PUBLIC "-//W3C//DTD SVG 1.1//EN" "http://www.w3.org/Graphics/SVG/1.1/DTD/svg11.dtd">
<svg version="1.1" id="Layer_1" xmlns="http://www.w3.org/2000/svg" xmlns:xlink="http://www.w3.org/1999/xlink" x="0px" y="0px"
	 viewBox="0 0 276.5 90.5" enable-background="new 0 0 276.5 90.5" xml:space="preserve">
<g>
	<g id="XMLID_1_">
		<g>
			<path fill="#FFD504" d="M239.7,48.1c2.5,2.5,5.2,5,4.1,8.3c-2.3-1.9-5.1-4.1-7.6-6.4c-2.9-2.7-5.5-5.7-8.4-8.3c-2-1.8-2-3,0-4.8
				c3.3-3,6.4-6.3,9.6-9.5c1.9-1.9,3.9-3.7,6-5.7c1.4,4-1.2,6.2-3.8,8.5c-2.8,2.5-5.6,5.1-8.2,7.8c-0.4,0.4-0.4,2,0.1,2.4
				C234.2,43.1,237,45.5,239.7,48.1z"/>
			<path fill="#FFD504" d="M183.7,21.2c3.5-0.5,3.5-0.4,3.5,2.5c0,10.8,0,21.6-0.1,32.4c0,1.1,0.5,2.4-1.5,2.4c-1.9,0-2-1-2-2.5
				c0.1-10.9,0-21.8,0-32.7C183.7,22.7,183.7,22,183.7,21.2z"/>
			<path fill="#FFD504" d="M143.3,58.1c-3.6,1.2-4.8,0.7-6.7-2.2c-1.7-2.5-3.4-5-5.2-7.5c-0.3-0.4-0.7-0.6-1.4-1.2
				c0,3.8,0,7.2,0,10.8c-0.9,0-1.8,0-3,0c0-12.2,0-24.4,0-37.3c6.3,3.1,11,7.9,17.3,11.5c-4.3,3.8-8.7,6.8-13.5,10.2
				C135,47.7,139.1,52.9,143.3,58.1z M130,37.5c3-1.9,6.4-2.7,8.4-5.7c-2.9-1.8-5.6-3.4-8.4-5.1C130,30.3,130,33.7,130,37.5z"/>
			<path fill="#FFD504" d="M92.3,38.3c0.2,6,0.2,12,0.2,18c0,0.6-0.9,1.7-1.5,1.8c-1.3,0.4-1.8-0.5-1.8-1.9c0-5.2,0-10.5,0-15.7
				c0-4.9-1.7-8.7-6.5-10.7c-2.4-1-4.8-2.2-7.2-3.3c-1.6-0.7-2.8-0.6-2.8,1.6c0,9.8,0,19.6,0,29.6c-3,0.8-3.1,0.7-3.1-2.2
				c0-10.6,0-21.1,0-31.7c0-0.7,0-1.5,0-2.9c6.4,3.2,12.6,6.1,18.5,9.3C91.2,31.9,92.2,35.1,92.3,38.3z"/>
			<path fill="#FFD504" d="M36.4,30.6c2.4,1.7,2.5,2.3,0.1,4c-3.5,2.6-7.1,5.1-10.9,7.8c4.1,5.2,8.3,10.4,12.5,15.7
				c-3.9,1.2-5.3,0.5-7.2-2.6c-1.6-2.7-3.6-5.2-5.9-8.4c0,4.1,0,7.4,0,11c-1.2,0-2.2,0-3.5,0c0-12.2,0-24.4,0-37.3
				c1.3,0.6,2.4,1,3.4,1.7C28.7,25.1,32.5,27.8,36.4,30.6z M33,32.5c-0.1-0.3-0.2-0.6-0.4-1c-2.5-1.6-5.1-3.1-7.7-4.8
				c0,3.5,0,6.8,0,10.7C27.9,35.7,30.5,34.1,33,32.5z"/>
		</g>
		<g>
		</g>
	</g>
</g>
</svg>
