<svg width="480" height="385" viewBox="0 0 480 385" version="1.1" xmlns="http://www.w3.org/2000/svg" xmlns:xlink="http://www.w3.org/1999/xlink">
<title>github-alt</title>
<desc>Created using Figma</desc>
<g id="Canvas" transform="translate(-12737 -5412)">
<g id="github-alt">
<g id="Vector">
<use xlink:href="#path0_fill" transform="translate(12737 5412)" fill="#FFFFFF"/>
</g>
</g>
</g>
<defs>
<path id="path0_fill" d="M 186.1 264.7C 186.1 285.6 175.2 319.8 149.4 319.8C 123.6 319.8 112.7 285.6 112.7 264.7C 112.7 243.8 123.6 209.6 149.4 209.6C 175.2 209.6 186.1 243.8 186.1 264.7L 186.1 264.7ZM 480 214.2C 480 246.1 476.8 279.9 462.5 309.2C 424.6 385.8 320.4 384 245.8 384C 170 384 59.6 386.7 20.2 309.2C 5.6 280.2 0 246.1 0 214.2C 0 172.3 13.9 132.7 41.5 100.6C 36.3 84.8 33.8 68.2 33.8 51.8C 33.8 30.3 38.7 19.5 48.4 0C 93.7 0 122.7 9 157.2 36C 186.2 29.1 216 26 245.9 26C 272.9 26 300.1 28.9 326.3 35.2C 360.3 8.5 389.3 0 434.1 0C 443.9 19.5 448.7 30.3 448.7 51.8C 448.7 68.2 446.1 84.5 441 100C 468.5 132.4 480 172.3 480 214.2L 480 214.2ZM 415.7 264.7C 415.7 220.8 389 182.1 342.2 182.1C 323.3 182.1 305.2 185.5 286.2 188.1C 271.3 190.4 256.4 191.3 241.1 191.3C 225.9 191.3 211 190.4 196 188.1C 177.3 185.5 159 182.1 140 182.1C 93.2 182.1 66.5 220.8 66.5 264.7C 66.5 352.5 146.9 366 216.9 366L 265.1 366C 335.4 366 415.7 352.6 415.7 264.7L 415.7 264.7ZM 333.1 209.6C 307.3 209.6 296.4 243.8 296.4 264.7C 296.4 285.6 307.3 319.8 333.1 319.8C 358.9 319.8 369.8 285.6 369.8 264.7C 369.8 243.8 358.9 209.6 333.1 209.6Z"/>
</defs>
</svg>
