<svg width="448" height="448" viewBox="0 0 448 448" version="1.1" xmlns="http://www.w3.org/2000/svg" xmlns:xlink="http://www.w3.org/1999/xlink">
<title>medium</title>
<desc>Created using Figma</desc>
<g id="Canvas" transform="translate(-13975 -5364)">
<g id="medium">
<g id="Vector">
<use xlink:href="#path0_fill" transform="translate(13975 5364)" fill="#FFFFFF"/>
</g>
</g>
</g>
<defs>
<path id="path0_fill" d="M 0 0L 0 448L 448 448L 448 0L 0 0ZM 372.2 106.1L 348.2 129.1C 346.1 130.7 345.1 133.3 345.5 135.8L 345.5 305.1C 345.1 307.7 346.1 310.3 348.2 311.8L 371.7 334.8L 371.7 339.9L 253.7 339.9L 253.7 335L 278 311.4C 280.4 309 280.4 308.3 280.4 304.7L 280.4 167.8L 212.8 339.4L 203.7 339.4L 125 167.8L 125 282.8C 124.3 287.6 126 292.5 129.4 296L 161 334.3L 161 339.4L 71.2 339.4L 71.2 334.3L 102.8 296C 106.2 292.5 107.7 287.6 106.9 282.8L 106.9 149.8C 107.3 146.1 105.9 142.5 103.1 140L 75 106.1L 75 101L 162.3 101L 229.7 249L 289 101.1L 372.2 101.1L 372.2 106.1Z"/>
</defs>
</svg>
