<svg xmlns="http://www.w3.org/2000/svg" viewBox="0 0 276.5 90.5"><g fill="#FFD504"><path d="M239.7 48.1c2.5 2.5 5.2 5 4.1 8.3-2.3-1.9-5.1-4.1-7.6-6.4-2.9-2.7-5.5-5.7-8.4-8.3-2-1.8-2-3 0-4.8 3.3-3 6.4-6.3 9.6-9.5 1.9-1.9 3.9-3.7 6-5.7 1.4 4-1.2 6.2-3.8 8.5-2.8 2.5-5.6 5.1-8.2 7.8-.4.4-.4 2 .1 2.4 2.7 2.7 5.5 5.1 8.2 7.7zM183.7 21.2c3.5-.5 3.5-.4 3.5 2.5 0 10.8 0 21.6-.1 32.4 0 1.1.5 2.4-1.5 2.4-1.9 0-2-1-2-2.5.1-10.9 0-21.8 0-32.7.1-.6.1-1.3.1-2.1zM143.3 58.1c-3.6 1.2-4.8.7-6.7-2.2-1.7-2.5-3.4-5-5.2-7.5-.3-.4-.7-.6-1.4-1.2V58h-3V20.7c6.3 3.1 11 7.9 17.3 11.5-4.3 3.8-8.7 6.8-13.5 10.2 4.2 5.3 8.3 10.5 12.5 15.7zM130 37.5c3-1.9 6.4-2.7 8.4-5.7-2.9-1.8-5.6-3.4-8.4-5.1v10.8zM92.3 38.3c.2 6 .2 12 .2 18 0 .6-.9 1.7-1.5 1.8-1.3.4-1.8-.5-1.8-1.9V40.5c0-4.9-1.7-8.7-6.5-10.7-2.4-1-4.8-2.2-7.2-3.3-1.6-.7-2.8-.6-2.8 1.6v29.6c-3 .8-3.1.7-3.1-2.2V23.8v-2.9c6.4 3.2 12.6 6.1 18.5 9.3 3.1 1.7 4.1 4.9 4.2 8.1zM36.4 30.6c2.4 1.7 2.5 2.3.1 4-3.5 2.6-7.1 5.1-10.9 7.8 4.1 5.2 8.3 10.4 12.5 15.7-3.9 1.2-5.3.5-7.2-2.6-1.6-2.7-3.6-5.2-5.9-8.4v11h-3.5V20.8c1.3.6 2.4 1 3.4 1.7 3.8 2.6 7.6 5.3 11.5 8.1zM33 32.5c-.1-.3-.2-.6-.4-1-2.5-1.6-5.1-3.1-7.7-4.8v10.7c3-1.7 5.6-3.3 8.1-4.9z"/></g></svg>