<svg width="564" height="318" viewBox="0 0 564 318" version="1.1" xmlns="http://www.w3.org/2000/svg" xmlns:xlink="http://www.w3.org/1999/xlink">
<title>spyglass</title>
<desc>Created using Figma</desc>
<g id="Canvas" transform="translate(-7104 -5397)">
<g id="spyglass">
<use xlink:href="#path0_fill" transform="translate(7104.17 5397.27)" fill="#7EC2F3"/>
</g>
</g>
<defs>
<path id="path0_fill" d="M 34.1539 2.45788C 33.7817 2.63928 33.4131 2.81898 33.0374 3.02088C 31.0306 4.0942 28.9538 5.4782 26.8359 7.16144C 18.3676 13.8918 10.0688 25.4042 4.9357 39.7352C -0.197815 54.0654 -1.09507 68.2297 1.17514 78.8078C 3.44451 89.3842 8.29676 95.6054 14.272 97.7457C 19.5044 99.6198 26.074 98.5426 33.3171 93.7229C 29.3234 89.5314 26.7758 83.9929 25.5653 78.2716C 23.6099 69.0267 24.5502 58.5695 28.276 48.1651C 32.0015 37.7599 37.8881 29.1006 45.268 23.1987C 47.1151 21.7242 49.1386 20.4007 51.2412 19.3054C 54.3615 17.6815 57.7212 16.5828 61.1657 16.1716C 58.6394 7.78281 54.2517 2.7577 48.9928 0.874043C 44.7927 -0.631831 39.7299 -0.246784 34.1539 2.45788ZM 60.7095 35.3955C 60.4068 35.532 60.0863 35.7011 59.7621 35.8786C 58.9017 36.3516 57.9798 36.9753 56.966 37.7861C 52.9066 41.0317 48.5506 46.9923 45.8734 54.4689C 43.1957 61.9469 42.7749 69.3161 43.8515 74.4006C 44.9259 79.4828 46.923 81.4855 48.628 82.0977L 49.0856 82.2608L 49.5412 82.4946L 108.818 111.167C 108.875 100.936 110.825 90.0289 114.727 79.131C 118.632 68.235 124.05 58.5696 130.502 50.6288L 66.5034 35.1461L 66.0021 35.038L 65.5441 34.8739C 64.4258 34.4733 62.8269 34.4414 60.7095 35.3955ZM 161.406 49.0231C 160.708 49.3305 159.986 49.6804 159.27 50.0653C 157.359 51.0956 155.364 52.4255 153.338 54.0455C 145.234 60.5231 137.272 71.6382 132.33 85.4367C 127.388 99.2352 126.481 112.876 128.63 123.027C 130.779 133.177 135.393 139.04 141.021 141.056L 141.492 141.248L 141.934 141.453L 147.301 144.033C 147.254 143.826 147.191 143.622 147.147 143.414C 143.857 128.082 145.315 110.065 151.767 92.0456C 158.189 74.115 168.439 59.3343 180.641 49.5779L 175.328 48.2836L 174.843 48.1337L 174.357 47.9838C 170.664 46.66 166.283 46.8795 161.404 49.0239L 161.406 49.0231ZM 200.563 58.8951C 197.942 60.1229 195.221 61.8335 192.428 64.0537C 183.484 71.16 174.764 83.2817 169.37 98.3491C 163.973 113.418 163.012 128.316 165.409 139.485C 167.355 148.559 171.131 154.674 175.932 157.877L 176.083 157.979L 245.43 191.504C 243.252 172.345 245.911 150.641 253.695 128.907C 261.484 107.165 273.226 88.7054 287.078 75.2831L 209.354 56.5042C 206.607 56.6772 203.649 57.4489 200.563 58.8951ZM 318.217 75.5695C 317.59 75.8736 316.954 76.1963 316.324 76.5339C 312.956 78.3335 309.567 80.6094 306.135 83.3527C 292.409 94.3251 279.346 112.608 271.255 135.195C 263.164 157.781 261.65 180.2 265.288 197.394C 268.929 214.589 277.17 225.778 288.253 229.748L 288.709 229.913L 289.166 230.146L 289.619 230.381C 288.424 226.916 287.437 223.318 286.644 219.62C 281.817 197.119 283.909 170.179 293.568 143.212C 303.228 116.244 318.715 94.1015 336.731 79.7831C 339.707 77.4148 342.775 75.2535 345.916 73.3335L 345.375 73.2088L 344.874 73.0984L 344.416 72.9343C 336.624 70.1441 327.635 71.0007 318.217 75.5686L 318.217 75.5695ZM 362.011 85.8101C 357.521 87.8943 352.932 90.764 348.345 94.4094C 333.661 106.08 319.77 125.497 311.167 149.515C 302.564 173.533 300.969 197.354 304.903 215.691C 307.838 229.367 313.553 239.564 321.238 245.647L 401.356 284.413C 400.411 281.336 399.587 278.194 398.894 274.966C 393.08 247.872 395.622 215.229 407.334 182.528C 419.046 149.829 437.796 123.036 459.488 105.796C 461.14 104.483 462.822 103.237 464.52 102.036L 380.179 81.6135L 380.149 81.6276C 374.409 81.4922 368.295 82.889 362.009 85.8087L 362.011 85.8101ZM 487.479 110.025C 486.625 110.434 485.762 110.855 484.905 111.307C 480.335 113.728 475.719 116.763 471.129 120.411C 452.771 135.001 435.562 159.096 424.907 188.845C 414.249 218.596 412.249 248.138 417.168 271.064C 422.086 293.994 433.385 309.526 448.928 315.091C 459.394 318.841 471.25 317.867 483.488 312.378C 482.616 312.123 481.747 311.846 480.878 311.536C 462.97 305.121 451.796 287.967 447.449 267.712C 443.104 247.455 445.013 223.336 453.669 199.17C 462.324 175.006 476.177 155.118 492.395 142.227C 496.452 139.005 500.703 136.202 505.093 133.912C 518.26 127.042 532.588 124.796 546.02 129.607C 546.916 129.927 547.791 130.27 548.653 130.643C 542.69 118.598 534.131 110.303 523.648 106.547C 512.721 102.633 500.285 103.872 487.48 110.023L 487.479 110.025ZM 515.353 149.629C 514.767 149.912 514.191 150.214 513.6 150.527C 510.449 152.201 507.23 154.297 504.01 156.856C 491.126 167.097 478.855 184.232 471.257 205.447C 467.526 215.861 465.299 226.222 464.4 235.992C 465.068 233.435 465.857 230.876 466.779 228.3C 474.893 205.652 490.585 189.443 505.711 186.122C 501.579 191.133 497.973 197.372 495.419 204.502C 487.699 226.057 492.281 247.41 505.655 252.201C 515.953 255.888 528.498 248.692 537.23 235.344C 536.406 240.786 534.987 246.392 532.976 252.01C 524.147 276.655 506.36 293.698 490.075 294.783C 499.75 296.969 511.189 293.55 522.879 284.258C 535.764 274.017 548.035 256.883 555.634 235.667C 563.234 214.452 564.632 193.423 561.18 177.33C 557.726 161.239 549.994 150.862 539.749 147.191C 532.543 144.613 524.163 145.384 515.356 149.627L 515.353 149.629Z"/>
</defs>
</svg>
